<svg width="1229" height="683" viewBox="0 0 1229 683" fill="none" xmlns="http://www.w3.org/2000/svg">
<rect width="1229" height="682.648" fill="white"/>
<path fill-rule="evenodd" clip-rule="evenodd" d="M758.056 590.798H467.507C452.403 590.798 442.229 588.483 442.229 586.279V579.577C442.27 579.224 442.447 578.901 442.723 578.677C442.999 578.454 443.352 578.347 443.705 578.381H781.857C782.211 578.347 782.564 578.453 782.84 578.677C783.117 578.901 783.294 579.224 783.335 579.577V586.267C783.332 588.011 775.454 590.798 758.056 590.798Z" stroke="#0055DC" stroke-width="2" stroke-miterlimit="10"/>
<path d="M442.814 579.533V586.269H782.714V579.533C782.714 579.384 782.655 579.242 782.55 579.137C782.445 579.032 782.302 578.973 782.154 578.973H443.375C443.226 578.973 443.084 579.032 442.979 579.137C442.873 579.242 442.814 579.384 442.814 579.533Z" fill="#C5EBF5"/>
<path fill-rule="evenodd" clip-rule="evenodd" d="M734.844 405.377H490.388C487.142 405.387 484.029 406.674 481.724 408.961C479.418 411.247 478.105 414.348 478.067 417.595V578.383H747.166V417.595C747.132 414.347 745.819 411.244 743.513 408.957C741.207 406.67 738.092 405.384 734.844 405.377Z" fill="#C5EBF5" stroke="#0055DC" stroke-width="2" stroke-miterlimit="10"/>
<path d="M735.866 424.598H488.91V568.516H735.866V424.598Z" fill="white"/>
<path d="M612.616 417.382C613.81 417.382 614.777 416.415 614.777 415.221C614.777 414.028 613.81 413.061 612.616 413.061C611.423 413.061 610.456 414.028 610.456 415.221C610.456 416.415 611.423 417.382 612.616 417.382Z" fill="#0055DC"/>
<path fill-rule="evenodd" clip-rule="evenodd" d="M649.581 578.973V580.384C649.581 581.468 647.445 581.796 645.828 581.796H579.504C577.803 581.796 575.652 581.469 575.652 580.384V578.973H649.581Z" fill="#0055DC"/>
<path d="M497.644 432.078C498.68 432.078 499.521 431.238 499.521 430.201C499.521 429.165 498.68 428.324 497.644 428.324C496.607 428.324 495.767 429.165 495.767 430.201C495.767 431.238 496.607 432.078 497.644 432.078Z" fill="white"/>
<path d="M503.715 432.078C504.751 432.078 505.592 431.238 505.592 430.201C505.592 429.165 504.751 428.324 503.715 428.324C502.678 428.324 501.837 429.165 501.837 430.201C501.837 431.238 502.678 432.078 503.715 432.078Z" fill="white"/>
<path d="M509.786 432.078C510.823 432.078 511.663 431.238 511.663 430.201C511.663 429.165 510.823 428.324 509.786 428.324C508.749 428.324 507.909 429.165 507.909 430.201C507.909 431.238 508.749 432.078 509.786 432.078Z" fill="white"/>
<path d="M878.546 405.377H771.688C768.711 405.377 766.297 407.791 766.297 410.768V563.19C766.297 566.167 768.711 568.581 771.688 568.581H878.546C881.523 568.581 883.937 566.167 883.937 563.19V410.768C883.937 407.791 881.523 405.377 878.546 405.377Z" fill="#C5EBF5" stroke="#0055DC" stroke-width="2" stroke-miterlimit="10"/>
<path d="M878.858 419.082H771.377V559.615H878.858V419.082Z" fill="white"/>
<path d="M834.361 412.029H821.248C820.703 412.029 820.262 412.47 820.262 413.015C820.262 413.559 820.703 414 821.248 414H834.361C834.905 414 835.347 413.559 835.347 413.015C835.347 412.47 834.905 412.029 834.361 412.029Z" fill="#295CCA"/>
<path d="M816.553 414.68C817.473 414.68 818.218 413.935 818.218 413.015C818.218 412.095 817.473 411.35 816.553 411.35C815.633 411.35 814.888 412.095 814.888 413.015C814.888 413.935 815.633 414.68 816.553 414.68Z" fill="#295CCA"/>
<path d="M433.457 410.803H423.044C422.612 410.803 422.262 411.153 422.262 411.585C422.262 412.017 422.612 412.368 423.044 412.368H433.457C433.889 412.368 434.24 412.017 434.24 411.585C434.24 411.153 433.889 410.803 433.457 410.803Z" fill="#295CCA"/>
<rect x="587.544" y="161.109" width="51.5712" height="318.313" fill="#0055DC" stroke="white" stroke-width="4"/>
<rect x="810.999" y="180.413" width="28.1728" height="322.407" fill="#C5EBF5" stroke="white" stroke-width="4"/>
<path d="M901.412 225.249C901.412 178.444 859.972 147.41 827.14 147.41C791.819 147.41 757.589 169.38 748.741 203.954C717.43 197.908 684.403 223.102 684.403 259.82C684.403 294.54 714.341 316.268 734.161 316.268H912.998C935.263 316.268 955.446 294.876 955.446 272.735C955.44 241.034 932.014 221.286 901.412 225.249Z" fill="#C5EBF5"/>
<path d="M735.487 179.154C735.487 108.712 673.12 62.0059 623.707 62.0059C570.548 62.0059 519.032 95.0704 505.715 147.105C458.593 138.006 408.887 175.923 408.887 231.184C408.887 283.437 453.944 316.137 483.772 316.137H752.924C786.432 316.137 816.808 283.943 816.808 250.62C816.8 202.909 781.542 173.189 735.487 179.154Z" fill="#0055DC"/>
<path fill-rule="evenodd" clip-rule="evenodd" d="M401.052 405.377H456.57C458.705 405.377 460.435 407.107 460.435 409.241V518.504C460.435 520.639 458.705 522.369 456.57 522.369H401.052C398.918 522.369 397.188 520.639 397.188 518.504V409.241C397.188 407.107 398.918 405.377 401.052 405.377ZM400.829 416.33H456.794V514.189H400.829V416.33Z" fill="#C5EBF5"/>
<path d="M456.794 416.33H457.794V415.33H456.794V416.33ZM400.829 416.33V415.33H399.829V416.33H400.829ZM456.794 514.189V515.189H457.794V514.189H456.794ZM400.829 514.189H399.829V515.189H400.829V514.189ZM456.57 404.377H401.052V406.377H456.57V404.377ZM461.435 409.241C461.435 406.555 459.257 404.377 456.57 404.377V406.377C458.152 406.377 459.435 407.659 459.435 409.241H461.435ZM461.435 518.504V409.241H459.435V518.504H461.435ZM456.57 523.369C459.257 523.369 461.435 521.191 461.435 518.504H459.435C459.435 520.086 458.152 521.369 456.57 521.369V523.369ZM401.052 523.369H456.57V521.369H401.052V523.369ZM396.188 518.504C396.188 521.191 398.365 523.369 401.052 523.369V521.369C399.47 521.369 398.188 520.086 398.188 518.504H396.188ZM396.188 409.241V518.504H398.188V409.241H396.188ZM401.052 404.377C398.365 404.377 396.188 406.555 396.188 409.241H398.188C398.188 407.659 399.47 406.377 401.052 406.377V404.377ZM456.794 415.33H400.829V417.33H456.794V415.33ZM457.794 514.189V416.33H455.794V514.189H457.794ZM400.829 515.189H456.794V513.189H400.829V515.189ZM399.829 416.33V514.189H401.829V416.33H399.829Z" fill="#0055DC"/>
<rect x="400.112" y="415.321" width="57.326" height="101.783" fill="white"/>
<rect x="422.586" y="180.413" width="12.9638" height="282.045" fill="#003682" stroke="white" stroke-width="4"/>
<path d="M403.915 413.566C405.045 413.566 405.962 412.65 405.962 411.519C405.962 410.388 405.045 409.472 403.915 409.472C402.784 409.472 401.867 410.388 401.867 411.519C401.867 412.65 402.784 413.566 403.915 413.566Z" fill="#295CCA"/>
<path d="M512.414 225.071C512.414 178.265 470.974 147.231 438.142 147.231C402.821 147.231 368.591 169.201 359.743 203.775C328.432 197.73 295.405 222.924 295.405 259.642C295.405 294.361 325.343 316.089 345.163 316.089H524C546.265 316.089 566.448 294.697 566.448 272.556C566.442 240.855 543.016 221.107 512.414 225.071Z" fill="#003682"/>
<path d="M825.486 527.634L856.381 496.631H794.591L825.486 527.634Z" fill="#C5EBF5"/>
<path d="M411.812 474.402H446.324" stroke="#003682" stroke-width="3"/>
<path d="M556.881 517.104L670.364 517.105" stroke="#0055DC" stroke-width="3"/>
<path d="M793.205 532.898L857.551 532.898" stroke="#C5EBF5" stroke-width="3"/>
<path d="M613.529 509.5L670.363 452.759H556.694L613.529 509.5Z" fill="#0055DC"/>
<path d="M429.126 470.308L445.739 453.929H412.513L429.126 470.308Z" fill="#003682"/>
</svg>
